<svg width="22" height="27" viewBox="0 0 22 27" fill="none" xmlns="http://www.w3.org/2000/svg">
<path d="M19.9705 13.6169V6.20484C19.9705 6.01616 19.8955 5.83522 19.7621 5.7018L16.029 1.96874C15.8956 1.83532 15.7147 1.76038 15.526 1.76038H1.71139C1.3185 1.76038 1 2.07888 1 2.47177V24.7621C1 25.155 1.3185 25.4735 1.71139 25.4735H9.29958" stroke="#4B86FF" stroke-width="2" stroke-linecap="round" stroke-linejoin="round"/>
<path d="M5.74268 11.2455H15.2279M5.74268 6.50293H10.4853M5.74268 15.9882H9.29964" stroke="#4B86FF" stroke-width="2" stroke-linecap="round" stroke-linejoin="round"/>
<path d="M17.5447 19.4734L18.7303 18.2877C19.2495 17.7685 20.0913 17.7685 20.6105 18.2877C21.1297 18.8069 21.1297 19.6487 20.6105 20.1679L19.4249 21.3536M17.5447 19.4734L13.9983 23.0198C13.8205 23.1975 13.7039 23.4272 13.6652 23.6754L13.3774 25.5208L15.2227 25.2332C15.4711 25.1944 15.7006 25.0777 15.8783 24.9L19.4249 21.3536M17.5447 19.4734L19.4249 21.3536" stroke="#4B86FF" stroke-width="2" stroke-linecap="round" stroke-linejoin="round"/>
<path d="M15.2278 1.76038V5.7916C15.2278 6.18449 15.5463 6.50299 15.9392 6.50299H19.9704" stroke="#4B86FF" stroke-width="2" stroke-linecap="round" stroke-linejoin="round"/>
</svg>
