<svg width="22" height="27" viewBox="0 0 22 27" fill="none" xmlns="http://www.w3.org/2000/svg">
<path d="M19.9705 13.3773V5.96521C19.9705 5.77654 19.8955 5.5956 19.7621 5.46218L16.029 1.72912C15.8956 1.5957 15.7147 1.52075 15.526 1.52075H1.71139C1.3185 1.52075 1 1.83925 1 2.23214V24.5224C1 24.9154 1.3185 25.2338 1.71139 25.2338H9.29958" stroke="#4B86FF" stroke-width="2" stroke-linecap="round" stroke-linejoin="round"/>
<path d="M5.74268 11.0059H15.2279M5.74268 6.26331H10.4853M5.74268 15.7485H9.29964" stroke="#4B86FF" stroke-width="2" stroke-linecap="round" stroke-linejoin="round"/>
<path d="M17.5447 19.2337L18.7303 18.0481C19.2495 17.5289 20.0913 17.5289 20.6105 18.0481C21.1297 18.5673 21.1297 19.4091 20.6105 19.9283L19.4249 21.114M17.5447 19.2337L13.9983 22.7802C13.8205 22.9579 13.7039 23.1875 13.6652 23.4358L13.3774 25.2812L15.2227 24.9935C15.4711 24.9548 15.7006 24.8381 15.8783 24.6604L19.4249 21.114M17.5447 19.2337L19.4249 21.114" stroke="#4B86FF" stroke-width="2" stroke-linecap="round" stroke-linejoin="round"/>
<path d="M15.2278 1.52075V5.55198C15.2278 5.94487 15.5463 6.26337 15.9392 6.26337H19.9704" stroke="#4B86FF" stroke-width="2" stroke-linecap="round" stroke-linejoin="round"/>
</svg>
