<svg width="25" height="24" viewBox="0 0 25 24" fill="none" xmlns="http://www.w3.org/2000/svg">
<g clip-path="url(#clip0_125_12829)">
<path d="M21.1734 4.60999C20.6626 4.099 20.0562 3.69364 19.3887 3.41708C18.7213 3.14052 18.0059 2.99817 17.2834 2.99817C16.5609 2.99817 15.8455 3.14052 15.178 3.41708C14.5106 3.69364 13.9041 4.099 13.3934 4.60999L12.3334 5.66999L11.2734 4.60999C10.2417 3.5783 8.8424 2.9987 7.38337 2.9987C5.92434 2.9987 4.52506 3.5783 3.49337 4.60999C2.46168 5.64169 1.88208 7.04096 1.88208 8.49999C1.88208 9.95903 2.46168 11.3583 3.49337 12.39L4.55337 13.45L12.3334 21.23L20.1134 13.45L21.1734 12.39C21.6844 11.8792 22.0897 11.2728 22.3663 10.6053C22.6428 9.93789 22.7852 9.22248 22.7852 8.49999C22.7852 7.77751 22.6428 7.0621 22.3663 6.39464C22.0897 5.72718 21.6844 5.12075 21.1734 4.60999V4.60999Z" stroke="white" stroke-width="2" stroke-linecap="round" stroke-linejoin="round"/>
</g>
<defs>
<clipPath id="clip0_125_12829">
<rect width="24" height="24" fill="white" transform="translate(0.333374)"/>
</clipPath>
</defs>
</svg>
