<svg width="25" height="24" viewBox="0 0 25 24" fill="none" xmlns="http://www.w3.org/2000/svg">
<g clip-path="url(#clip0_125_2181)">
<path d="M21.5066 4.61012C20.9959 4.09912 20.3894 3.69376 19.722 3.4172C19.0545 3.14064 18.3391 2.99829 17.6166 2.99829C16.8941 2.99829 16.1787 3.14064 15.5113 3.4172C14.8438 3.69376 14.2374 4.09912 13.7266 4.61012L12.6666 5.67012L11.6066 4.61012C10.5749 3.57842 9.17566 2.99883 7.71662 2.99883C6.25759 2.99883 4.85831 3.57842 3.82662 4.61012C2.79493 5.64181 2.21533 7.04108 2.21533 8.50012C2.21533 9.95915 2.79493 11.3584 3.82662 12.3901L4.88662 13.4501L12.6666 21.2301L20.4466 13.4501L21.5066 12.3901C22.0176 11.8794 22.423 11.2729 22.6995 10.6055C22.9761 9.93801 23.1184 9.2226 23.1184 8.50012C23.1184 7.77763 22.9761 7.06222 22.6995 6.39476C22.423 5.7273 22.0176 5.12087 21.5066 4.61012V4.61012Z" stroke="white" stroke-width="2" stroke-linecap="round" stroke-linejoin="round"/>
</g>
<defs>
<clipPath id="clip0_125_2181">
<rect width="24" height="24" fill="white" transform="translate(0.666626)"/>
</clipPath>
</defs>
</svg>
