<svg width="40" height="39" viewBox="0 0 40 39" fill="none" xmlns="http://www.w3.org/2000/svg">
<g clip-path="url(#clip0_1_1258)">
<path d="M24.1316 19.5C24.1316 21.5614 22.4606 23.2324 20.3992 23.2324C18.3378 23.2324 16.6667 21.5614 16.6667 19.5C16.6667 17.4386 18.3378 15.7676 20.3992 15.7676C22.4606 15.7676 24.1316 17.4386 24.1316 19.5Z" fill="#3B5998"/>
<path d="M29.128 12.8964C28.9485 12.4102 28.6623 11.9702 28.2904 11.6089C27.9291 11.237 27.4894 10.9508 27.0029 10.7713C26.6083 10.6181 26.0156 10.4357 24.9239 10.386C23.743 10.3322 23.3889 10.3206 20.3991 10.3206C17.4091 10.3206 17.055 10.3319 15.8744 10.3857C14.7827 10.4357 14.1896 10.6181 13.7954 10.7713C13.3089 10.9508 12.8688 11.237 12.5079 11.6089C12.136 11.9702 11.8497 12.4099 11.67 12.8964C11.5168 13.291 11.3344 13.884 11.2847 14.9757C11.2308 16.1563 11.2192 16.5104 11.2192 19.5005C11.2192 22.4902 11.2308 22.8443 11.2847 24.0252C11.3344 25.1169 11.5168 25.7097 11.67 26.1042C11.8497 26.5907 12.1357 27.0305 12.5076 27.3917C12.8688 27.7636 13.3086 28.0499 13.7951 28.2293C14.1896 28.3828 14.7827 28.5652 15.8744 28.6149C17.055 28.6688 17.4088 28.6801 20.3988 28.6801C23.3892 28.6801 23.7433 28.6688 24.9236 28.6149C26.0153 28.5652 26.6083 28.3828 27.0029 28.2293C27.9794 27.8526 28.7513 27.0807 29.128 26.1042C29.2812 25.7097 29.4636 25.1169 29.5136 24.0252C29.5674 22.8443 29.5787 22.4902 29.5787 19.5005C29.5787 16.5104 29.5674 16.1563 29.5136 14.9757C29.4639 13.884 29.2815 13.291 29.128 12.8964V12.8964ZM20.3991 25.2499C17.2234 25.2499 14.6491 22.6759 14.6491 19.5002C14.6491 16.3244 17.2234 13.7504 20.3991 13.7504C23.5746 13.7504 26.1489 16.3244 26.1489 19.5002C26.1489 22.6759 23.5746 25.2499 20.3991 25.2499ZM26.3763 14.8668C25.6342 14.8668 25.0325 14.2651 25.0325 13.523C25.0325 12.781 25.6342 12.1793 26.3763 12.1793C27.1183 12.1793 27.72 12.781 27.72 13.523C27.7197 14.2651 27.1183 14.8668 26.3763 14.8668Z" fill="#3B5998"/>
<path d="M20.3992 0C9.63126 0 0.89917 8.73209 0.89917 19.5C0.89917 30.2679 9.63126 39 20.3992 39C31.1671 39 39.8992 30.2679 39.8992 19.5C39.8992 8.73209 31.1671 0 20.3992 0ZM31.5289 24.1164C31.4747 25.3084 31.2852 26.1222 31.0085 26.8345C30.4268 28.3386 29.2378 29.5276 27.7337 30.1093C27.0217 30.386 26.2076 30.5753 25.0159 30.6297C23.8218 30.6842 23.4404 30.6973 20.3995 30.6973C17.3582 30.6973 16.9771 30.6842 15.7827 30.6297C14.5911 30.5753 13.777 30.386 13.0649 30.1093C12.3175 29.8281 11.6409 29.3875 11.0815 28.8177C10.512 28.2586 10.0713 27.5817 9.79015 26.8345C9.51344 26.1225 9.3239 25.3084 9.26974 24.1167C9.2147 22.9224 9.2019 22.5409 9.2019 19.5C9.2019 16.4591 9.2147 16.0776 9.26945 14.8836C9.3236 13.6916 9.51284 12.8778 9.78956 12.1655C10.0707 11.4183 10.5117 10.7414 11.0815 10.1823C11.6406 9.61253 12.3175 9.17187 13.0647 8.89069C13.777 8.61397 14.5908 8.42473 15.7827 8.37028C16.9768 8.31583 17.3582 8.30273 20.3992 8.30273C23.4401 8.30273 23.8215 8.31583 25.0156 8.37057C26.2076 8.42473 27.0214 8.61397 27.7337 8.89039C28.4808 9.17157 29.1577 9.61253 29.7171 10.1823C30.2866 10.7417 30.7276 11.4183 31.0085 12.1655C31.2855 12.8778 31.4747 13.6916 31.5292 14.8836C31.5836 16.0776 31.5964 16.4591 31.5964 19.5C31.5964 22.5409 31.5836 22.9224 31.5289 24.1164V24.1164Z" fill="#3B5998"/>
</g>
<defs>
<clipPath id="clip0_1_1258">
<rect width="39" height="39" fill="white" transform="translate(0.89917)"/>
</clipPath>
</defs>
</svg>
