<svg width="40" height="39" viewBox="0 0 40 39" fill="none" xmlns="http://www.w3.org/2000/svg">
<g clip-path="url(#clip0_1_1267)">
<path d="M20.1975 38.999C30.9671 38.999 39.6975 30.2686 39.6975 19.499C39.6975 8.72947 30.9671 -0.000976562 20.1975 -0.000976562C9.42796 -0.000976562 0.69751 8.72947 0.69751 19.499C0.69751 30.2686 9.42796 38.999 20.1975 38.999Z" fill="#007AB9"/>
<path d="M31.8485 21.0688V29.1082H27.1875V21.6076C27.1875 19.7242 26.5145 18.4381 24.8269 18.4381C23.539 18.4381 22.7739 19.304 22.436 20.1424C22.3133 20.442 22.2817 20.8581 22.2817 21.2784V29.1078H17.6203C17.6203 29.1078 17.6829 16.4042 17.6203 15.0892H22.282V17.0758C22.2727 17.0915 22.2594 17.1068 22.2511 17.1217H22.282V17.0758C22.9015 16.1227 24.0062 14.7601 26.4829 14.7601C29.5494 14.7601 31.8485 16.7637 31.8485 21.0688ZM12.7441 8.33179C11.1496 8.33179 10.1064 9.37843 10.1064 10.7536C10.1064 12.0995 11.1194 13.1764 12.6829 13.1764H12.7131C14.3389 13.1764 15.3497 12.0995 15.3497 10.7536C15.3188 9.37843 14.3389 8.33179 12.7441 8.33179ZM10.3835 29.1082H15.0431V15.0892H10.3835V29.1082Z" fill="#F1F2F2"/>
</g>
<defs>
<clipPath id="clip0_1_1267">
<rect width="39" height="39" fill="white" transform="translate(0.69751)"/>
</clipPath>
</defs>
</svg>
