<svg width="40" height="39" viewBox="0 0 40 39" fill="none" xmlns="http://www.w3.org/2000/svg">
<g clip-path="url(#clip0_1_1262)">
<path d="M20.2985 39.0003C31.0678 39.0003 39.7981 30.27 39.7981 19.5006C39.7981 8.73127 31.0678 0.000976562 20.2985 0.000976562C9.52912 0.000976562 0.798828 8.73127 0.798828 19.5006C0.798828 30.27 9.52912 39.0003 20.2985 39.0003Z" fill="#CB2027"/>
<path d="M21.8723 26.1123C20.3981 25.9983 19.7787 25.2673 18.6226 24.5655C17.9872 27.8993 17.2106 31.0951 14.9106 32.7647C14.1997 27.7259 15.9527 23.9412 16.7668 19.924C15.3791 17.5881 16.9336 12.8865 19.8604 14.045C23.4626 15.4695 16.7417 22.7305 21.2536 23.6374C25.9639 24.5843 27.8868 15.4643 24.9656 12.4979C20.745 8.21509 12.6804 12.4005 13.6721 18.5315C13.9137 20.0303 15.4626 20.4854 14.2908 22.5536C11.5896 21.9554 10.7839 19.8249 10.8875 16.9847C11.0547 12.3355 15.0649 9.08026 19.0873 8.62977C24.1745 8.0604 28.9491 10.4978 29.6081 15.2828C30.3496 20.6835 27.3115 26.5322 21.8723 26.1123Z" fill="#F1F2F2"/>
</g>
<defs>
<clipPath id="clip0_1_1262">
<rect width="39" height="39" fill="white" transform="translate(0.79834)"/>
</clipPath>
</defs>
</svg>
