<svg width="36" height="24" viewBox="0 0 36 24" fill="none" xmlns="http://www.w3.org/2000/svg">
<rect x="0.333374" width="35" height="24" rx="4" fill="#00579F"/>
<path d="M15.3075 16.0828H13.3285L14.5663 8.4292H16.5452L15.3075 16.0828Z" fill="white"/>
<path d="M22.4807 8.61637C22.0904 8.46151 21.4713 8.29053 20.7057 8.29053C18.7514 8.29053 17.3752 9.33267 17.3668 10.8226C17.3505 11.9219 18.3521 12.5325 19.1012 12.899C19.8668 13.2735 20.1271 13.518 20.1271 13.8518C20.1193 14.3646 19.5084 14.6009 18.9386 14.6009C18.1485 14.6009 17.7252 14.4791 17.0818 14.1938L16.8212 14.0715L16.5443 15.7896C17.0085 16.0011 17.8636 16.1887 18.7514 16.1969C20.8279 16.1969 22.1798 15.1709 22.1958 13.5831C22.2037 12.7119 21.6748 12.0443 20.5346 11.4988C19.8425 11.1486 19.4186 10.9124 19.4186 10.5541C19.4267 10.2284 19.7771 9.89475 20.5584 9.89475C21.2018 9.87841 21.6745 10.0331 22.0326 10.1878L22.2116 10.2691L22.4807 8.61637Z" fill="white"/>
<path d="M25.112 13.3714C25.275 12.9317 25.9021 11.23 25.9021 11.23C25.8939 11.2463 26.0647 10.7822 26.1624 10.4972L26.3008 11.1567C26.3008 11.1567 26.6755 12.9887 26.7569 13.3714C26.4476 13.3714 25.5029 13.3714 25.112 13.3714ZM27.5548 8.4292H26.024C25.552 8.4292 25.1934 8.5675 24.9897 9.06422L22.0502 16.0827H24.1267C24.1267 16.0827 24.4685 15.1381 24.542 14.9346C24.7698 14.9346 26.7898 14.9346 27.0828 14.9346C27.1397 15.2033 27.319 16.0827 27.319 16.0827H29.1513L27.5548 8.4292V8.4292Z" fill="white"/>
<path d="M11.6754 8.4292L9.73728 13.6482L9.5255 12.5897C9.16719 11.3684 8.04346 10.0414 6.78943 9.38162L8.56463 16.0747H10.6574L13.768 8.4292H11.6754V8.4292Z" fill="white"/>
<path d="M7.93763 8.4292H4.75364L4.72107 8.58384C7.20478 9.21897 8.84969 10.7499 9.52551 12.5901L8.83335 9.07255C8.71939 8.58373 8.3692 8.44532 7.93763 8.4292Z" fill="#FAA61A"/>
</svg>
