<svg width="36" height="24" viewBox="0 0 36 24" fill="none" xmlns="http://www.w3.org/2000/svg">
<rect x="0.666626" width="35" height="24" rx="4" fill="#00579F"/>
<path d="M15.6407 16.0828H13.6617L14.8995 8.4292H16.8784L15.6407 16.0828Z" fill="white"/>
<path d="M22.814 8.61637C22.4236 8.46151 21.8045 8.29053 21.039 8.29053C19.0847 8.29053 17.7085 9.33267 17.7 10.8226C17.6838 11.9219 18.6853 12.5325 19.4344 12.899C20.2001 13.2735 20.4603 13.518 20.4603 13.8518C20.4525 14.3646 19.8416 14.6009 19.2719 14.6009C18.4818 14.6009 18.0584 14.4791 17.4151 14.1938L17.1545 14.0715L16.8776 15.7896C17.3417 16.0011 18.1968 16.1887 19.0847 16.1969C21.1612 16.1969 22.513 15.1709 22.529 13.5831C22.5369 12.7119 22.0081 12.0443 20.8679 11.4988C20.1757 11.1486 19.7518 10.9124 19.7518 10.5541C19.7599 10.2284 20.1104 9.89475 20.8917 9.89475C21.535 9.87841 22.0077 10.0331 22.3658 10.1878L22.5448 10.2691L22.814 8.61637Z" fill="white"/>
<path d="M25.4452 13.3714C25.6082 12.9317 26.2353 11.23 26.2353 11.23C26.2271 11.2463 26.398 10.7822 26.4957 10.4972L26.634 11.1567C26.634 11.1567 27.0088 12.9887 27.0901 13.3714C26.7809 13.3714 25.8361 13.3714 25.4452 13.3714ZM27.888 8.4292H26.3573C25.8852 8.4292 25.5266 8.5675 25.3229 9.06422L22.3834 16.0827H24.4599C24.4599 16.0827 24.8018 15.1381 24.8752 14.9346C25.103 14.9346 27.123 14.9346 27.4161 14.9346C27.4729 15.2033 27.6522 16.0827 27.6522 16.0827H29.4846L27.888 8.4292V8.4292Z" fill="white"/>
<path d="M12.0086 8.4292L10.0705 13.6482L9.85875 12.5897C9.50044 11.3684 8.37671 10.0414 7.12268 9.38162L8.89789 16.0747H10.9906L14.1012 8.4292H12.0086V8.4292Z" fill="white"/>
<path d="M8.27088 8.4292H5.08689L5.05432 8.58384C7.53803 9.21897 9.18294 10.7499 9.85876 12.5901L9.1666 9.07255C9.05265 8.58373 8.70245 8.44532 8.27088 8.4292Z" fill="#FAA61A"/>
</svg>
